PathFileType	4	(X/Y/Z)	 s05c0202.trc
DataRate	CameraRate	NumFrames	NumMarkers	Units	OrigDataRate	OrigDataStartFrame	OrigNumFrames
200	200	4	49	mm	200	1251	2000
Frame#	Time	racr			lacr			c7			jug			rlel			rdr			llel			ldr			s2			lic			ric			lasi			rasi			rpsi			lpsi			rgt			lgt			rth1			rth2			rth3			rth4			rlfc			rsh1			rsh2			rsh3			rsh4			rlmal			rmmal			rcal			rtoe			rmt5			lth1			lth2			lth4			lth3			llfc			lmfc			lsh1			lsh2			lsh3			lsh4			llmal			lmmal			lcal			ltoe			lmt5			SBIKE			LBIKE			RBIKE			
		X1	Y1	Z1	X2	Y2	Z2	X3	Y3	Z3	X4	Y4	Z4	X5	Y5	Z5	X6	Y6	Z6	X7	Y7	Z7	X8	Y8	Z8	X9	Y9	Z9	X10	Y10	Z10	X11	Y11	Z11	X12	Y12	Z12	X13	Y13	Z13	X14	Y14	Z14	X15	Y15	Z15	X16	Y16	Z16	X17	Y17	Z17	X18	Y18	Z18	X19	Y19	Z19	X20	Y20	Z20	X21	Y21	Z21	X22	Y22	Z22	X23	Y23	Z23	X24	Y24	Z24	X25	Y25	Z25	X26	Y26	Z26	X27	Y27	Z27	X28	Y28	Z28	X29	Y29	Z29	X30	Y30	Z30	X31	Y31	Z31	X32	Y32	Z32	X33	Y33	Z33	X34	Y34	Z34	X35	Y35	Z35	X36	Y36	Z36	X37	Y37	Z37	X38	Y38	Z38	X39	Y39	Z39	X40	Y40	Z40	X41	Y41	Z41	X42	Y42	Z42	X43	Y43	Z43	X44	Y44	Z44	X45	Y45	Z45	X46	Y46	Z46	X47	Y47	Z47	X48	Y48	Z48	X49	Y49	Z49	
1251	6.2550	509.968281	1259.739178	-173.777511	507.055556	1216.447742	-420.073618	485.762780	1324.608562	-312.929043	421.571182	1176.892866	-281.619441	502.864572	1099.201167	59.398925	664.263945	962.432799	-46.621073	492.775146	1033.276897	-647.587062	657.565017	971.768555	-458.892004	-96.258326	1198.606171	-244.002581	30.628189	1205.465740	-394.565065	63.951880	1205.806290	-111.332952	75.085646	1153.638830	-358.005985	94.661238	1139.790092	-143.830822	-53.808548	1243.754985	-203.865835	-60.907837	1249.406807	-288.058303	-2.205141	1067.009938	-88.694181	-15.425324	1128.628203	-423.701152	69.843768	964.566728	-78.156512	131.663990	900.241403	-79.358123	151.497714	814.321270	-84.489743	162.179201	917.609163	-91.778962	222.360783	682.001394	-104.009798	154.561602	596.155428	-78.753040	140.757656	509.314760	-91.739895	89.390119	441.097672	-96.034032	169.661909	500.341613	-115.462570	44.399137	312.820501	-104.642455	69.140592	335.420617	-184.314375	-27.688333	310.873297	-155.222351	224.924656	154.645244	-149.528585	123.547011	180.601006	-86.526916	104.136406	1063.393040	-435.247128	190.333424	1061.795736	-427.510710	199.533546	1092.768762	-406.680475	266.379992	1012.448607	-424.314756	396.435559	940.951759	-393.169040	381.146361	918.755683	-282.852212	321.345980	842.464090	-416.607965	298.414485	758.152021	-415.015410	234.857983	696.190610	-418.431026	327.523556	741.737718	-396.191714	180.255183	579.559634	-419.222173	212.082794	600.277910	-342.757577	113.513355	541.481559	-380.536157	402.295102	490.332127	-392.620231	291.675522	476.422274	-454.448428	-214.799605	913.635938	-268.524927	-43.595951	85.124276	-475.036599	-51.922219	80.196976	-77.526981	
1252	6.2600	510.357827	1259.384774	-174.488199	507.882890	1217.944411	-421.344545	485.555913	1325.090514	-313.288990	422.762640	1176.530700	-283.170598	502.282160	1098.430755	58.925145	664.583792	962.331621	-45.368962	491.576916	1033.385760	-647.605339	656.784499	971.705123	-459.244287	-97.212856	1198.514647	-245.547773	30.381708	1205.682728	-394.971703	63.552251	1205.297085	-111.532413	74.653510	1153.021382	-358.670292	94.658457	1139.327870	-143.706559	-53.986602	1243.136618	-203.447921	-61.225190	1249.169738	-287.918110	-1.086833	1066.848836	-88.760832	-16.533855	1127.700714	-423.397921	74.331408	966.393124	-78.969733	137.832262	903.898072	-81.046831	160.044424	818.470205	-85.191983	167.550020	921.859257	-94.350363	231.097305	686.629442	-104.212070	161.269589	602.173904	-79.023667	144.950226	515.864071	-91.854189	91.648211	449.046721	-95.762374	173.401168	505.994946	-115.767333	42.456119	322.290962	-104.382214	67.846510	344.075022	-184.056045	-29.652152	323.217081	-154.841545	216.394810	156.752450	-149.673166	116.225933	186.716483	-86.600288	103.073329	1060.633083	-436.139282	189.222613	1057.529920	-428.506866	199.091539	1088.361637	-407.870415	264.423941	1006.932891	-425.555364	392.965407	933.005564	-394.617008	377.619528	910.704288	-284.661915	319.088643	832.553135	-418.250530	297.938935	747.742978	-416.055810	235.748882	684.494742	-419.150471	327.373401	732.142660	-397.203895	183.837604	567.350424	-419.344144	215.382884	589.291838	-342.789551	118.484816	526.866715	-379.908160	409.189362	487.497290	-394.507913	298.624431	468.785899	-455.270586	-214.814299	913.587149	-268.776243	-43.603191	85.033561	-475.078764	-51.903226	80.183907	-77.568449	
1253	6.2650	510.769133	1259.086964	-174.870491	507.427111	1219.343324	-422.219722	485.305353	1325.616835	-313.493533	422.939496	1176.730266	-284.120549	501.514289	1097.637354	58.428806	664.728613	962.137200	-44.223015	490.351037	1033.633325	-647.551287	656.037932	971.670619	-459.556006	-95.622122	1196.191523	-234.334645	29.915499	1205.295296	-395.058923	63.182375	1204.482864	-111.636761	74.209030	1152.059623	-359.152233	94.552121	1138.780707	-143.669307	-54.158244	1242.204568	-203.311709	-61.629704	1248.570562	-287.761337	0.181235	1066.546883	-88.757967	-17.739244	1126.319010	-423.156767	78.785885	968.486193	-79.841652	143.839502	907.686917	-82.494516	168.255950	822.755588	-85.666588	172.838478	926.255753	-96.428080	239.778506	691.460557	-104.459836	168.151987	608.295895	-79.304696	149.372144	522.472716	-91.862598	94.242614	457.089942	-95.414877	177.319138	511.871738	-116.037874	41.107611	331.870126	-103.915300	66.868480	353.162483	-183.665611	-31.127562	335.682072	-154.297200	208.010670	159.409656	-149.967897	109.235998	193.311165	-86.699667	101.852091	1057.323719	-436.922906	187.931382	1052.786435	-429.508363	198.383629	1083.676515	-409.181141	262.359515	1000.926280	-427.011542	389.832569	924.926801	-395.836659	374.135290	902.704274	-286.621569	316.810691	822.269667	-419.781306	297.808643	736.963721	-416.910471	237.102979	672.374691	-419.868697	327.537235	722.183489	-397.856261	187.738910	555.132798	-419.075771	219.452134	578.022320	-342.492389	123.511519	512.642279	-378.991438	415.755109	483.413369	-396.527522	305.289253	460.578798	-456.044592	-214.792991	913.579222	-268.970292	-43.616015	84.984112	-475.121242	-51.910218	80.172481	-77.614374	
1254	6.2700	510.976972	1258.871285	-175.183444	506.903813	1220.965349	-423.121693	485.056085	1326.170429	-313.590624	422.953902	1176.976450	-285.247896	500.366341	1096.960778	57.951576	664.642773	961.832072	-43.381208	489.091534	1033.957126	-647.401332	655.304757	971.692315	-459.894676	-95.773761	1195.587663	-236.282392	29.676014	1204.697568	-395.427205	62.980787	1203.528164	-112.052906	73.891134	1150.998032	-359.732173	94.597714	1138.026519	-143.582029	-53.795917	1240.673032	-203.909168	-61.975165	1247.580137	-287.744400	1.662920	1066.025022	-88.681726	-18.928042	1124.546332	-422.947920	82.973736	970.732428	-80.802662	149.452497	911.446812	-84.016668	175.933255	827.333317	-85.970275	177.857039	930.676216	-98.076857	248.415073	696.302163	-104.658541	175.075263	614.483660	-79.498077	153.890223	529.140365	-91.851843	97.024082	465.239919	-95.098256	181.379182	517.797893	-116.217943	40.098535	341.658335	-103.414962	66.301588	362.265195	-183.355546	-32.081816	348.291515	-153.654646	200.007581	162.686998	-150.191500	102.700164	200.283872	-86.762342	100.474702	1053.635750	-437.695957	186.516805	1047.692494	-430.694577	197.772423	1078.647539	-410.721850	260.169774	994.748190	-428.464733	386.200157	916.097957	-398.058902	370.819126	894.716729	-288.519344	314.557740	811.688271	-421.352876	297.906677	726.018581	-417.630295	238.909890	659.700872	-420.119069	327.956319	712.137190	-398.357459	192.145535	543.224649	-418.741967	223.657009	566.394327	-342.313897	129.178801	498.691904	-378.540220	422.242151	478.502565	-396.647288	312.395946	452.254509	-456.221691	-214.751720	913.566562	-269.079003	-43.621875	84.941419	-475.151420	-51.916899	80.206595	-77.611230	
